HIERARCHY
ROOT Hips
{
	OFFSET 0.000000 83.214638 0.000000
	CHANNELS 6 Xposition Yposition Zposition Xrotation Yrotation Zrotation
	JOINT Pelvis
	{
		OFFSET 0.000000 0.000000 0.000000
		CHANNELS 3 Xrotation Yrotation Zrotation
		JOINT LeftUpLeg
		{
			OFFSET 8.479700 -4.795502 -0.379100
			CHANNELS 3 Xrotation Yrotation Zrotation
			JOINT LeftLeg
			{
				OFFSET 0.024144 -32.555107 0.112900
				CHANNELS 3 Xrotation Yrotation Zrotation
				JOINT LeftFoot
				{
					OFFSET -0.024144 -32.638630 -3.012600
					CHANNELS 3 Xrotation Yrotation Zrotation
					JOINT LeftToeBase
					{
						OFFSET 0.970200 -13.225400 11.864200
						CHANNELS 3 Xrotation Yrotation Zrotation
						End Site
						{
							OFFSET 0.000000 12.319262 0.000000
						}
					}
					JOINT LFootTongue
					{
						OFFSET 1.142400 -1.059800 6.665200
						CHANNELS 3 Xrotation Yrotation Zrotation
						End Site
						{
							OFFSET 0.000000 12.319262 0.000000
						}
					}
				}
				JOINT LeftPantLeg
				{
					OFFSET 0.918482 -16.533964 -2.284700
					CHANNELS 3 Xrotation Yrotation Zrotation
					End Site
					{
						OFFSET 0.350399 24.744368 0.000000
					}
				}
			}
		}
		JOINT RightUpLeg
		{
			OFFSET -8.479700 -4.795502 -0.379100
			CHANNELS 3 Xrotation Yrotation Zrotation
			JOINT RightLeg
			{
				OFFSET -0.023144 -32.555092 0.112900
				CHANNELS 3 Xrotation Yrotation Zrotation
				JOINT RightFoot
				{
					OFFSET 0.023144 -32.638641 -3.012700
					CHANNELS 3 Xrotation Yrotation Zrotation
					JOINT RightToeBase
					{
						OFFSET -0.970200 -13.225400 11.864200
						CHANNELS 3 Xrotation Yrotation Zrotation
						End Site
						{
							OFFSET 0.000000 12.319244 0.000000
						}
					}
					JOINT RFootTongue
					{
						OFFSET -1.142200 -1.059800 6.665200
						CHANNELS 3 Xrotation Yrotation Zrotation
						End Site
						{
							OFFSET 0.000000 12.319243 0.000000
						}
					}
				}
				JOINT RightPantLeg
				{
					OFFSET -0.919482 -16.533978 -2.284800
					CHANNELS 3 Xrotation Yrotation Zrotation
					End Site
					{
						OFFSET -0.350400 24.744419 0.000000
					}
				}
			}
		}
	}
	JOINT Spine
	{
		OFFSET 0.000000 7.722000 1.166200
		CHANNELS 3 Xrotation Yrotation Zrotation
		JOINT Spine1
		{
			OFFSET 0.000000 12.024101 0.248800
			CHANNELS 3 Xrotation Yrotation Zrotation
			JOINT Spine2
			{
				OFFSET 0.000000 11.502998 -0.491200
				CHANNELS 3 Xrotation Yrotation Zrotation
				JOINT Neck
				{
					OFFSET 0.000000 18.430702 -3.123100
					CHANNELS 3 Xrotation Yrotation Zrotation
					JOINT Head
					{
						OFFSET 0.000000 9.051102 1.034000
						CHANNELS 3 Xrotation Yrotation Zrotation
						JOINT HairB
						{
							OFFSET 0.208400 24.786102 24.822300
							CHANNELS 3 Xrotation Yrotation Zrotation
							End Site
							{
								OFFSET 0.000000 32.263779 0.000000
							}
						}
						JOINT HairA
						{
							OFFSET -7.081100 24.428299 23.196600
							CHANNELS 3 Xrotation Yrotation Zrotation
							End Site
							{
								OFFSET 0.000000 32.263779 0.000000
							}
						}
						JOINT Hat
						{
							OFFSET 16.728800 15.048294 -15.439601
							CHANNELS 3 Xrotation Yrotation Zrotation
							End Site
							{
								OFFSET 0.000000 32.263779 0.000000
							}
						}
					}
				}
				JOINT LeftShoulder
				{
					OFFSET 6.197800 13.665199 -4.064700
					CHANNELS 3 Xrotation Yrotation Zrotation
					JOINT LeftArm
					{
						OFFSET 7.778100 -0.187103 -1.709300
						CHANNELS 3 Xrotation Yrotation Zrotation
						JOINT LeftForeArm
						{
							OFFSET 22.049376 0.000000 0.000000
							CHANNELS 3 Xrotation Yrotation Zrotation
							JOINT LeftHand
							{
								OFFSET 23.009392 0.000000 0.000000
								CHANNELS 3 Xrotation Yrotation Zrotation
								JOINT LeftHandThumb1
								{
									OFFSET 3.507191 -2.063065 3.133727
									CHANNELS 3 Xrotation Yrotation Zrotation
									JOINT LeftHandThumb2
									{
										OFFSET 3.101337 -1.790558 1.790558
										CHANNELS 3 Xrotation Yrotation Zrotation
										JOINT LeftHandThumb3
										{
											OFFSET 3.058640 -1.765907 1.765906
											CHANNELS 3 Xrotation Yrotation Zrotation
											End Site
											{
												OFFSET -0.415260 3.926476 -0.049563
											}
										}
									}
								}
								JOINT LeftHandIndex1
								{
									OFFSET 11.334419 -0.901459 3.706815
									CHANNELS 3 Xrotation Yrotation Zrotation
									JOINT LeftHandIndex2
									{
										OFFSET 3.283112 0.000000 0.000000
										CHANNELS 3 Xrotation Yrotation Zrotation
										JOINT LeftHandIndex3
										{
											OFFSET 3.323853 0.000000 0.000000
											CHANNELS 3 Xrotation Yrotation Zrotation
											End Site
											{
												OFFSET -1.135597 3.097809 0.402452
											}
										}
									}
								}
								JOINT LeftHandMiddle1
								{
									OFFSET 11.335861 0.000000 0.000000
									CHANNELS 3 Xrotation Yrotation Zrotation
									JOINT LeftHandMiddle2
									{
										OFFSET 3.410492 0.000000 0.000000
										CHANNELS 3 Xrotation Yrotation Zrotation
										JOINT LeftHandMiddle3
										{
											OFFSET 3.312172 0.000000 0.000000
											CHANNELS 3 Xrotation Yrotation Zrotation
											End Site
											{
												OFFSET -1.150200 3.080154 0.400270
											}
										}
									}
								}
								JOINT LeftHandRing1
								{
									OFFSET 11.514786 -0.013176 -3.003090
									CHANNELS 3 Xrotation Yrotation Zrotation
									JOINT LeftHandRing2
									{
										OFFSET 3.053307 0.000000 0.000000
										CHANNELS 3 Xrotation Yrotation Zrotation
										JOINT LeftHandRing3
										{
											OFFSET 3.295807 0.000000 0.000000
											CHANNELS 3 Xrotation Yrotation Zrotation
											End Site
											{
												OFFSET -1.281006 3.013344 0.375733
											}
										}
									}
								}
								JOINT LeftHandPinky1
								{
									OFFSET 10.518692 -0.960396 -5.730441
									CHANNELS 3 Xrotation Yrotation Zrotation
									JOINT LeftHandPinky2
									{
										OFFSET 2.861649 0.000000 0.000000
										CHANNELS 3 Xrotation Yrotation Zrotation
										JOINT LeftHandPinky3
										{
											OFFSET 2.863380 0.000000 0.000000
											CHANNELS 3 Xrotation Yrotation Zrotation
											End Site
											{
												OFFSET -0.843597 2.711159 0.369971
											}
										}
									}
								}
							}
							JOINT LSleeve
							{
								OFFSET 6.676277 -0.344902 -1.011730
								CHANNELS 3 Xrotation Yrotation Zrotation
								End Site
								{
									OFFSET 0.000000 14.885353 0.000000
								}
							}
						}
					}
				}
				JOINT RightShoulder
				{
					OFFSET -6.197800 13.665199 -4.064700
					CHANNELS 3 Xrotation Yrotation Zrotation
					JOINT RightArm
					{
						OFFSET -7.778100 -0.187103 -1.709300
						CHANNELS 3 Xrotation Yrotation Zrotation
						JOINT RightForeArm
						{
							OFFSET -22.049376 0.000000 0.000000
							CHANNELS 3 Xrotation Yrotation Zrotation
							JOINT RightHand
							{
								OFFSET -23.009392 0.000000 0.000000
								CHANNELS 3 Xrotation Yrotation Zrotation
								JOINT RightHandThumb1
								{
									OFFSET -3.507191 -2.063065 3.133727
									CHANNELS 3 Xrotation Yrotation Zrotation
									JOINT RightHandThumb2
									{
										OFFSET -3.101337 -1.790558 1.790558
										CHANNELS 3 Xrotation Yrotation Zrotation
										JOINT RightHandThumb3
										{
											OFFSET -3.058640 -1.765907 1.765906
											CHANNELS 3 Xrotation Yrotation Zrotation
											End Site
											{
												OFFSET 0.415260 3.926476 -0.049563
											}
										}
									}
								}
								JOINT RightHandIndex1
								{
									OFFSET -11.334419 -0.901459 3.706815
									CHANNELS 3 Xrotation Yrotation Zrotation
									JOINT RightHandIndex2
									{
										OFFSET -3.283112 0.000000 0.000000
										CHANNELS 3 Xrotation Yrotation Zrotation
										JOINT RightHandIndex3
										{
											OFFSET -3.323853 0.000000 0.000000
											CHANNELS 3 Xrotation Yrotation Zrotation
											End Site
											{
												OFFSET 1.135597 3.097809 0.402452
											}
										}
									}
								}
								JOINT RightHandMiddle1
								{
									OFFSET -11.335861 0.000000 0.000000
									CHANNELS 3 Xrotation Yrotation Zrotation
									JOINT RightHandMiddle2
									{
										OFFSET -3.410492 0.000000 0.000000
										CHANNELS 3 Xrotation Yrotation Zrotation
										JOINT RightHandMiddle3
										{
											OFFSET -3.312172 0.000000 0.000000
											CHANNELS 3 Xrotation Yrotation Zrotation
											End Site
											{
												OFFSET 1.150200 3.080154 0.400270
											}
										}
									}
								}
								JOINT RightHandRing1
								{
									OFFSET -11.514786 -0.013176 -3.003090
									CHANNELS 3 Xrotation Yrotation Zrotation
									JOINT RightHandRing2
									{
										OFFSET -3.053307 0.000000 0.000000
										CHANNELS 3 Xrotation Yrotation Zrotation
										JOINT RightHandRing3
										{
											OFFSET -3.295807 0.000000 0.000000
											CHANNELS 3 Xrotation Yrotation Zrotation
											End Site
											{
												OFFSET 1.281006 3.013344 0.375733
											}
										}
									}
								}
								JOINT RightHandPinky1
								{
									OFFSET -10.518692 -0.960396 -5.730441
									CHANNELS 3 Xrotation Yrotation Zrotation
									JOINT RightHandPinky2
									{
										OFFSET -2.861649 0.000000 0.000000
										CHANNELS 3 Xrotation Yrotation Zrotation
										JOINT RightHandPinky3
										{
											OFFSET -2.863380 0.000000 0.000000
											CHANNELS 3 Xrotation Yrotation Zrotation
											End Site
											{
												OFFSET 0.843597 2.711159 0.369971
											}
										}
									}
								}
							}
							JOINT RSleeve
							{
								OFFSET -6.676277 -0.344902 -1.011730
								CHANNELS 3 Xrotation Yrotation Zrotation
								End Site
								{
									OFFSET 0.000000 14.885353 0.000000
								}
							}
						}
					}
				}
				JOINT Backpack
				{
					OFFSET 0.000000 -2.471497 36.677502
					CHANNELS 3 Xrotation Yrotation Zrotation
					End Site
					{
						OFFSET 0.000000 20.427315 0.000000
					}
				}
				JOINT Hood
				{
					OFFSET 0.000000 18.754097 -10.431000
					CHANNELS 3 Xrotation Yrotation Zrotation
					JOINT Hood1
					{
						OFFSET 0.000000 -5.011002 -7.685901
						CHANNELS 3 Xrotation Yrotation Zrotation
						End Site
						{
							OFFSET 0.000000 9.175140 0.000000
						}
					}
				}
				JOINT LHoodieString
				{
					OFFSET 5.250500 16.397697 3.089900
					CHANNELS 3 Xrotation Yrotation Zrotation
					JOINT LHoodieString1
					{
						OFFSET 0.257700 -6.364304 3.694600
						CHANNELS 3 Xrotation Yrotation Zrotation
						JOINT LHoodieString2
						{
							OFFSET 0.000000 -9.643799 2.679100
							CHANNELS 3 Xrotation Yrotation Zrotation
							End Site
							{
								OFFSET 0.000000 10.009018 0.000000
							}
						}
					}
				}
				JOINT RHoodieString
				{
					OFFSET -5.250500 16.397697 3.089900
					CHANNELS 3 Xrotation Yrotation Zrotation
					JOINT RHoodieString1
					{
						OFFSET -0.257700 -6.364304 3.694600
						CHANNELS 3 Xrotation Yrotation Zrotation
						JOINT RHoodieString2
						{
							OFFSET 0.000000 -9.643799 2.679100
							CHANNELS 3 Xrotation Yrotation Zrotation
							End Site
							{
								OFFSET 0.000000 10.009018 0.000000
							}
						}
					}
				}
			}
			JOINT LBackpack_Strap
			{
				OFFSET 15.223200 -7.719803 -6.610900
				CHANNELS 3 Xrotation Yrotation Zrotation
				End Site
				{
					OFFSET 0.000000 16.040596 0.000000
				}
			}
			JOINT RBackpack_Strap
			{
				OFFSET -15.223000 -7.719803 -6.610900
				CHANNELS 3 Xrotation Yrotation Zrotation
				End Site
				{
					OFFSET 0.000000 16.040596 0.000000
				}
			}
		}
	}
	JOINT BoyFacialAnim_Joint
	{
		OFFSET 1.000000 -82.208099 -1.550900
		CHANNELS 3 Xrotation Yrotation Zrotation
		End Site
		{
			OFFSET 0.000000 30.012791 0.000000
		}
	}
}
MOTION
Frames: 5
Frame Time: 0.033333
0.767395 73.740707 0.768093 13.477601 -13.968451 0.885028 -0.000001 0.000001 -0.000000 -53.712058 8.038243 22.276109 45.124758 -2.324060 5.772814 -4.866400 1.528013 -14.404468 -0.000000 -0.000000 -0.000000 -0.000000 -0.000000 -0.000000 0.000000 0.000001 0.000001 -46.398114 -10.672946 -18.840582 47.298681 -5.913545 -5.646061 -11.483123 -2.306622 14.463407 0.000000 0.000002 0.000000 0.000000 0.000002 0.000000 0.000000 -0.000001 -0.000001 11.631911 1.252967 -1.051617 8.397684 1.073153 -0.644348 8.393738 1.093335 -0.682615 -6.238574 -2.087010 -0.766630 -39.835115 -11.077761 -1.502316 -0.000001 0.000002 -0.000000 -0.000001 0.000002 -0.000000 -0.000001 0.000002 -0.000000 0.426706 3.934595 -8.422668 -25.036904 -25.441516 -59.432037 0.000086 -83.845599 0.000113 31.571614 24.149531 17.429854 -1.540036 3.690188 6.142361 3.939052 7.948703 0.746799 -0.000000 -0.000001 0.000001 -0.000004 -0.000004 -0.000001 0.000010 -0.000009 -0.000077 -0.000002 -0.000000 -0.000004 0.000005 -0.001937 0.015977 -0.000005 0.001946 -0.015982 0.000003 0.000000 -0.000001 0.000002 -0.000007 0.000000 -0.000000 0.000003 0.000002 0.000000 -0.000000 -0.000000 -0.018083 4.054253 0.511072 -0.018090 -4.054250 -0.511061 0.000001 0.000000 -0.000000 0.000000 0.000001 0.000001 1.724644 4.970703 5.940259 -22.746384 29.554211 57.207701 0.000040 79.848743 -0.000053 14.650619 7.444629 -35.805238 -1.849263 -3.581795 -6.586129 4.637195 -8.634127 -0.225391 -0.000003 0.000000 0.000001 -0.000005 -0.000009 -0.000001 0.000002 0.000011 0.000012 -0.000002 -0.000001 0.000005 0.000002 -0.000008 0.000005 0.000002 -0.000015 0.000017 0.000001 0.000002 0.000000 -0.000005 -0.000004 0.000002 0.000001 0.000003 0.000011 0.000004 -0.000001 0.000002 -0.000006 -0.000002 -0.000001 0.000003 -0.000002 -0.000006 0.000001 -0.000002 -0.000000 0.000001 0.000002 0.000001 -0.000001 0.000000 0.000000 -0.000001 0.000000 0.000000 -0.000001 0.000000 0.000000 -0.000001 0.000000 0.000000 -0.000001 0.000000 0.000000 0.000002 0.000000 0.000000 -0.000001 0.000000 0.000000 -0.000001 0.000000 0.000000 0.000002 0.000000 0.000000 -0.000000 0.000000 -0.000000 -0.000000 0.000000 -0.000000 -0.000001 0.000001 -0.000000 
0.669153 73.835663 0.750542 13.424486 -13.687855 0.893356 0.000000 -0.000000 0.000000 -53.354152 8.217034 22.184516 44.353391 -2.703974 5.853000 -4.480262 1.535030 -14.870145 0.000000 -0.000000 0.000000 0.000000 -0.000000 0.000000 0.000000 -0.000001 -0.000001 -46.072133 -10.871742 -18.946134 46.905214 -5.875221 -5.646049 -11.404141 -2.365370 14.824714 0.000000 -0.000002 0.000000 0.000000 -0.000002 0.000000 -0.000000 -0.000001 -0.000000 11.647428 1.304491 -1.101848 8.409477 1.112780 -0.679019 8.405317 1.131532 -0.718627 -6.364290 -2.084192 -0.790214 -39.485009 -11.013081 -1.658318 0.000000 0.000001 -0.000000 0.000000 0.000001 -0.000000 0.000000 0.000001 -0.000000 0.425763 3.915925 -8.370851 -25.093466 -25.540896 -59.506862 -0.000237 -83.812609 -0.000237 31.527340 24.278068 17.363483 -1.540036 3.690185 6.142357 3.939054 7.948698 0.746803 0.000001 -0.000001 -0.000001 -0.000004 -0.000003 -0.000004 0.000006 -0.000009 -0.000077 -0.000001 0.000001 -0.000003 0.000003 -0.001937 0.015972 -0.000009 0.001947 -0.015985 0.000001 -0.000002 0.000002 -0.000002 -0.000007 -0.000005 -0.000003 0.000003 0.000002 0.000002 0.000000 -0.000002 -0.018083 4.054253 0.511070 -0.018094 -4.054249 -0.511063 0.000003 0.000001 0.000002 0.000000 0.000001 -0.000001 1.695512 4.795026 6.004716 -22.718695 29.579446 57.192357 0.000043 79.844317 -0.000045 14.291075 7.730191 -35.428263 -1.849253 -3.581796 -6.586128 4.637196 -8.634126 -0.225394 -0.000004 0.000001 0.000001 -0.000002 -0.000009 -0.000002 0.000004 0.000012 0.000011 -0.000004 0.000001 0.000005 0.000007 -0.000007 0.000002 -0.000003 -0.000016 0.000020 0.000000 0.000003 -0.000003 0.000001 -0.000003 -0.000002 0.000003 0.000002 0.000013 0.000003 -0.000003 -0.000000 -0.000001 -0.000002 -0.000003 0.000006 -0.000000 0.000000 0.000002 0.000001 -0.000001 0.000001 -0.000001 -0.000002 0.000003 -0.000000 -0.000000 0.000003 -0.000000 -0.000000 0.000003 -0.000000 -0.000000 0.000003 -0.000000 -0.000000 0.000003 -0.000000 0.000000 -0.000001 -0.000000 0.000001 0.000003 -0.000000 -0.000000 0.000003 -0.000000 0.000000 -0.000001 -0.000000 0.000001 0.000002 0.000000 0.000000 0.000002 0.000000 0.000000 0.000000 -0.000000 0.000000 
0.548598 73.845695 0.730154 13.383006 -13.446651 0.902656 -0.000001 0.000001 -0.000000 -53.269946 8.258883 22.139394 44.103911 -2.948564 5.872016 -4.315700 1.521957 -14.949305 -0.000000 0.000000 -0.000000 -0.000000 0.000000 0.000000 0.000000 -0.000000 -0.000001 -46.093279 -11.109977 -19.012887 47.039595 -5.887512 -5.748531 -11.563712 -2.383141 14.782181 0.000000 -0.000002 0.000000 0.000000 -0.000002 0.000000 0.000002 -0.000002 0.000002 11.658359 1.379560 -1.150619 8.414125 1.171427 -0.711383 8.409684 1.190101 -0.753298 -6.520432 -2.066662 -0.809098 -39.074812 -10.885102 -1.783848 -0.000000 -0.000000 -0.000000 -0.000000 -0.000000 -0.000000 -0.000000 -0.000000 -0.000000 0.426709 3.908175 -8.370667 -25.056462 -25.754840 -59.474200 0.000030 -83.770064 0.000019 31.409851 24.384694 17.323124 -1.540036 3.690186 6.142362 3.939052 7.948702 0.746802 0.000002 -0.000005 -0.000000 -0.000003 -0.000005 -0.000001 0.000008 -0.000009 -0.000077 -0.000001 -0.000001 -0.000002 0.000005 -0.001937 0.015977 -0.000008 0.001945 -0.015980 -0.000000 -0.000001 0.000000 -0.000000 -0.000009 0.000002 -0.000004 0.000003 0.000000 -0.000003 -0.000002 -0.000001 -0.018084 4.054251 0.511071 -0.018097 -4.054248 -0.511059 0.000002 0.000001 -0.000000 -0.000000 -0.000001 0.000003 1.679918 4.690106 5.914590 -22.701549 29.614437 57.256161 -0.000123 79.730820 0.000135 14.223100 7.989701 -35.460351 -1.849257 -3.581796 -6.586128 4.637203 -8.634127 -0.225391 -0.000002 -0.000000 0.000001 -0.000004 -0.000008 -0.000004 -0.000001 0.000012 0.000010 -0.000001 -0.000001 0.000003 0.000001 -0.000008 0.000003 -0.000003 -0.000016 0.000022 0.000002 -0.000000 0.000001 -0.000007 -0.000004 0.000005 -0.000001 0.000005 0.000012 0.000003 0.000001 0.000004 -0.000006 -0.000003 -0.000003 0.000003 -0.000002 -0.000005 -0.000003 0.000000 -0.000001 0.000001 -0.000002 -0.000000 0.000001 -0.000000 0.000000 0.000001 -0.000000 0.000000 0.000001 -0.000000 0.000000 0.000001 -0.000000 0.000000 0.000001 -0.000000 0.000000 0.000001 -0.000000 0.000000 0.000001 -0.000000 0.000000 0.000001 -0.000000 0.000000 0.000001 -0.000000 0.000000 0.000001 0.000000 -0.000000 0.000001 0.000000 -0.000000 -0.000001 0.000001 -0.000000 
0.404386 73.847137 0.713978 13.328976 -13.401191 0.913832 0.000001 0.000001 0.000000 -53.194879 8.327295 22.302808 43.966375 -3.182995 5.777448 -4.235159 1.509536 -14.921182 0.000000 0.000000 0.000000 0.000000 0.000000 0.000000 -0.000000 -0.000000 -0.000000 -46.066446 -11.102513 -18.912218 47.215803 -5.994454 -5.774158 -11.728810 -2.400133 14.712168 -0.000000 0.000001 0.000000 -0.000000 0.000001 0.000000 0.000001 0.000001 -0.000002 11.674888 1.488021 -1.197939 8.422717 1.257714 -0.741818 8.417816 1.276021 -0.786823 -6.630492 -2.026108 -0.917623 -38.737964 -10.728733 -1.897804 -0.000000 0.000001 -0.000000 -0.000000 0.000001 -0.000000 -0.000000 0.000001 -0.000000 0.433175 3.929841 -8.520333 -24.939691 -26.023811 -59.324728 0.000111 -83.695478 0.000148 31.343929 24.332371 17.300879 -1.540035 3.690186 6.142361 3.939053 7.948703 0.746800 -0.000003 -0.000002 0.000001 -0.000002 -0.000004 -0.000002 0.000009 -0.000010 -0.000075 -0.000001 -0.000001 -0.000004 0.000004 -0.001937 0.015977 -0.000004 0.001946 -0.015982 -0.000001 -0.000001 0.000000 -0.000002 -0.000007 -0.000002 -0.000003 0.000003 0.000004 0.000001 0.000001 -0.000002 -0.018083 4.054252 0.511072 -0.018093 -4.054247 -0.511061 0.000000 0.000001 0.000002 0.000001 -0.000000 0.000003 1.679762 4.662107 5.583381 -22.754454 29.539134 57.536578 -0.000052 79.607480 0.000040 14.299932 8.135550 -35.443146 -1.849255 -3.581794 -6.586129 4.637195 -8.634127 -0.225389 -0.000002 -0.000002 -0.000002 -0.000005 -0.000008 -0.000005 -0.000000 0.000012 0.000011 -0.000004 -0.000001 0.000003 0.000001 -0.000008 0.000003 0.000001 -0.000015 0.000019 -0.000000 -0.000000 -0.000000 -0.000006 -0.000004 0.000002 -0.000002 0.000005 0.000013 -0.000002 0.000000 0.000004 -0.000004 -0.000002 -0.000003 0.000005 -0.000000 -0.000003 -0.000002 0.000001 -0.000003 -0.000000 -0.000002 -0.000001 -0.000000 -0.000000 -0.000000 -0.000000 -0.000000 -0.000000 -0.000000 -0.000000 -0.000000 -0.000000 -0.000000 -0.000000 -0.000000 -0.000000 -0.000000 -0.000001 0.000000 -0.000000 -0.000000 -0.000000 -0.000000 -0.000000 -0.000000 -0.000000 -0.000001 0.000000 -0.000000 0.000002 0.000000 -0.000000 0.000002 0.000000 -0.000000 0.000001 0.000001 0.000000 
0.250323 73.878120 0.703533 13.237244 -13.440135 0.998864 0.000000 0.000000 -0.000000 -52.996623 8.528350 22.474480 43.715164 -3.397669 5.655057 -4.128975 1.489561 -14.854232 -0.000000 0.000000 0.000000 -0.000000 0.000000 -0.000000 -0.000001 0.000000 -0.000000 -45.981783 -11.005931 -18.756671 47.322904 -6.138024 -5.869214 -11.857894 -2.402637 14.631288 0.000000 0.000001 -0.000000 0.000000 0.000001 -0.000000 0.000001 0.000002 0.000001 11.692920 1.619236 -1.260077 8.435291 1.366313 -0.774881 8.429750 1.384386 -0.823569 -6.646150 -1.999321 -1.147542 -38.557811 -10.781182 -1.980417 -0.000000 0.000000 -0.000000 -0.000000 0.000000 -0.000000 -0.000000 0.000000 -0.000000 0.445123 3.973222 -8.795697 -24.801889 -26.189956 -59.185447 -0.000058 -83.629506 -0.000077 31.385399 24.176302 17.084074 -1.540040 3.690185 6.142361 3.939054 7.948701 0.746802 0.000002 -0.000001 -0.000000 -0.000005 -0.000005 -0.000002 0.000004 -0.000010 -0.000075 -0.000002 -0.000000 -0.000002 0.000003 -0.001936 0.015977 -0.000007 0.001946 -0.015980 0.000001 -0.000000 0.000000 -0.000001 -0.000008 -0.000002 -0.000000 0.000003 0.000004 0.000002 -0.000001 -0.000000 -0.018085 4.054252 0.511070 -0.018093 -4.054250 -0.511061 0.000001 0.000000 0.000002 0.000001 -0.000000 0.000003 1.686222 4.657935 5.089215 -22.888246 29.318256 58.074845 0.000074 79.547668 -0.000068 14.416209 8.214977 -35.159901 -1.849262 -3.581796 -6.586130 4.637196 -8.634126 -0.225391 -0.000002 -0.000002 -0.000001 -0.000005 -0.000009 -0.000002 0.000002 0.000011 0.000012 0.000004 0.000000 0.000002 -0.000001 -0.000009 0.000002 -0.000004 -0.000014 0.000019 0.000005 0.000001 -0.000002 -0.000006 -0.000003 0.000000 0.000002 0.000003 0.000015 0.000004 -0.000000 0.000004 -0.000005 -0.000002 -0.000003 0.000012 -0.000002 -0.000004 0.000002 0.000000 0.000000 0.000003 -0.000001 0.000001 0.000000 0.000000 0.000000 0.000000 0.000000 0.000000 0.000000 0.000000 0.000000 0.000000 0.000000 0.000000 0.000000 0.000000 0.000000 -0.000001 0.000000 0.000000 0.000000 0.000000 0.000000 0.000000 0.000000 0.000000 -0.000001 0.000000 0.000000 0.000003 -0.000001 0.000000 0.000003 -0.000001 0.000000 0.000000 0.000000 -0.000000 
